<svg width="16" height="16" viewBox="0 0 16 16" fill="none" xmlns="http://www.w3.org/2000/svg">
<g clip-path="url(#clip0_307_21534)">
<g clip-path="url(#clip1_307_21534)">
<path d="M12 11.0007C12 13.7622 9.76142 16.0007 7 16.0007C4.23858 16.0007 2 13.7622 2 11.0007V8.00075L12 8.00075V11.0007Z" fill="#BDBDBD"/>
<path fill-rule="evenodd" clip-rule="evenodd" d="M6.5 1.02539C3.97334 1.27625 2 3.40803 2 6.0007V7.00072H5V4.00073C5 3.06881 5.63739 2.28576 6.5 2.06374V1.02539Z" fill="#BDBDBD"/>
<path fill-rule="evenodd" clip-rule="evenodd" d="M7.5 1.02539C10.0267 1.27625 12 3.40803 12 6.0007V7.00072H9V4.00073C9 3.06881 8.36261 2.28576 7.5 2.06374V1.02539Z" fill="#7ED4FB"/>
<path d="M8 4.00075C8 3.44846 7.55228 3.00075 7 3.00075C6.44772 3.00075 6 3.44846 6 4.00075V7.00075H8V4.00075Z" fill="#BDBDBD"/>
</g>
</g>
<defs>
<clipPath id="clip0_307_21534">
<rect width="16" height="16" fill="white"/>
</clipPath>
<clipPath id="clip1_307_21534">
<rect width="16" height="16" fill="white"/>
</clipPath>
</defs>
</svg>
